{"title":"Vikings.S03.EXTENDED.1080p.BluRay.x264-CiNEFiLE","uid":12778671,"size":46938677879,"categoryP":"video","categoryS":"hd___tv_shows","magnet":"?xt=urn:btih:b8063959b2b9aecfaad6d6475af727e8869b004e&amp;dn=Vikings.S03.EXTENDED.1080p.BluRay.x264-CiNEFiLE&amp;tr=udp%3A%2F%2Ftracker.leechers-paradise.org%3A6969&amp;tr=udp%3A%2F%2Fzer0day.ch%3A1337&amp;tr=udp%3A%2F%2Fopen.demonii.com%3A1337&amp;tr=udp%3A%2F%2Ftracker.coppersurfer.tk%3A6969&amp;tr=udp%3A%2F%2Fexodus.desync.com%3A6969","seeders":0,"leechers":1,"uploader":"gazkammre","files":10,"time":1447770046,"description":"Vikings.S03.EXTENDED.1080p.BluRay.x264-CiNEFiLE\r\n\r\nFormat                         : Matroska\r\nFormat version                 : Version 4 / Version 2\r\nFile size                      : 4.37 GiB\r\nDuration                       : 49mn 5s\r\nOverall bit rate               : 12.7 Mbps\r\nEncoded date                   : UTC 2015-10-01 03:43:28\r\nWriting application            : mkvmerge v8.1.0 ('Psychedelic Postcard') 64bit\r\nWriting library                : libebml v1.3.1 + libmatroska v1.4.2\r\nDURATION                       : 00:48:01.920000000\r\nNUMBER_OF_FRAMES               : 505\r\nNUMBER_OF_BYTES                : 13694\r\n_STATISTICS_WRITING_APP        : mkvmerge v8.1.0 ('Psychedelic Postcard') 64bit\r\n_STATISTICS_WRITING_DATE_UTC   : 2015-10-01 03:43:28\r\n_STATISTICS_TAGS               : BPS DURATION NUMBER_OF_FRAMES NUMBER_OF_BYTES\r\n\r\nVideo\r\nID                             : 1\r\nFormat                         : AVC\r\nFormat/Info                    : Advanced Video Codec\r\nFormat profile                 :   \r\nFormat settings, CABAC         : Yes\r\nFormat settings, ReFrames      : 4 frames\r\nCodec ID                       : V_MPEG4/ISO/AVC\r\nDuration                       : 49mn 5s\r\nBit rate                       : 11.2 Mbps\r\nWidth                          : 1 920 pixels\r\nHeight                         : 1 080 pixels\r\nDisplay aspect ratio           : 16:9\r\nFrame rate mode                : Constant\r\nFrame rate                     : 23.976 fps\r\nColor space                    : YUV\r\nChroma subsampling             : 4:2:0\r\nBit depth                      : 8 bits\r\nScan type                      : Progressive\r\nBits/(Pixel*Frame)             : 0.226\r\nStream size                    : 3.77 GiB (86%)\r\nWriting library                : x264 core 148 r2597 e86f3a1\r\nEncoding settings              : cabac=1 / ref=4 / deblock=1:0:0 / analyse=0x3:0x113 / me=umh / subme=8 / psy=1 / psy_rd=1.00:0.00 / mixed_ref=1 / me_range=16 / chroma_me=1 / trellis=1 / 8x8dct=1 / cqm=0 / deadzone=21,11 / fast_pskip=0 / chroma_qp_offset=-2 / threads=18 / lookahead_threads=3 / sliced_threads=0 / nr=0 / decimate=1 / interlaced=0 / bluray_compat=0 / constrained_intra=0 / bframes=3 / b_pyramid=2 / b_adapt=1 / b_bias=0 / direct=1 / weightb=1 / open_gop=0 / weightp=2 / keyint=250 / keyint_min=23 / scenecut=40 / intra_refresh=0 / rc_lookahead=40 / rc=2pass / mbtree=1 / bitrate=11237 / ratetol=1.0 / qcomp=0.60 / qpmin=0 / qpmax=69 / qpstep=4 / cplxblur=20.0 / qblur=0.5 / ip_ratio=1.40 / aq=1:1.00\r\nLanguage                       : English\r\nDefault                        : Yes\r\nForced                         : No\r\nDURATION                       : 00:49:05.818000000\r\nNUMBER_OF_FRAMES               : 70629\r\nNUMBER_OF_BYTES                : 4138168877\r\n_STATISTICS_WRITING_APP        : mkvmerge v8.1.0 ('Psychedelic Postcard') 64bit\r\n_STATISTICS_WRITING_DATE_UTC   : 2015-10-01 03:43:28\r\n_STATISTICS_TAGS               : BPS DURATION NUMBER_OF_FRAMES NUMBER_OF_BYTES\r\n\r\nAudio\r\nID                             : 2\r\nFormat                         : DTS\r\nFormat/Info                    : Digital Theater Systems\r\nMode                           : 16\r\nFormat settings, Endianness    : Big\r\nCodec ID                       : A_DTS\r\nDuration                       : 49mn 5s\r\nBit rate mode                  : Constant\r\nBit rate                       : 1 509 Kbps\r\nChannel(s)                     : 6 channels\r\nChannel positions              : Front: L C R, Side: L R, LFE\r\nSampling rate                  : 48.0 KHz\r\nBit depth                      : 24 bits\r\nCompression mode               : Lossy\r\nStream size                    : 530 MiB (12%)\r\nLanguage                       : English\r\nDefault                        : Yes\r\nForced                         : No\r\n\r\nText #1\r\nID                             : 3\r\nFormat                         : UTF-8\r\nCodec ID                       : S_TEXT/UTF8\r\nCodec ID/Info                  : UTF-8 Plain Text\r\nLanguage                       : English\r\nDefault                        : No\r\nForced                         : No\r\n\r\nText #2\r\nID                             : 4\r\nFormat                         : UTF-8\r\nCodec ID                       : S_TEXT/UTF8\r\nCodec ID/Info                  : UTF-8 Plain Text\r\nTitle                          : SDH\r\nLanguage                       : English\r\nDefault                        : No\r\nForced                         : No\r\n\r\nMenu\r\n00:00:00.000                   : en:00:00:00.000\r\n00:01:47.691                   : en:00:01:47.691\r\n00:07:08.303                   : en:00:07:08.303\r\n00:11:57.467                   : en:00:11:57.467\r\n00:17:46.607                   : en:00:17:46.607\r\n00:20:26.475                   : en:00:20:26.475\r\n00:24:23.796                   : en:00:24:23.796\r\n00:29:06.495                   : en:00:29:06.495\r\n00:35:29.669                   : en:00:35:29.669\r\n00:36:38.238                   : en:00:36:38.238\r\n00:41:21.562                   : en:00:41:21.562\r\n00:44:39.051                   : en:00:44:39.051","torrent":{"xt":"urn:btih:b8063959b2b9aecfaad6d6475af727e8869b004e","amp;dn":"Vikings.S03.EXTENDED.1080p.BluRay.x264-CiNEFiLE","amp;tr":["udp%3A%2F%2Ftracker.leechers-paradise.org%3A6969","udp%3A%2F%2Fzer0day.ch%3A1337","udp%3A%2F%2Fopen.demonii.com%3A1337","udp%3A%2F%2Ftracker.coppersurfer.tk%3A6969","udp%3A%2F%2Fexodus.desync.com%3A6969"],"infoHash":"b8063959b2b9aecfaad6d6475af727e8869b004e","infoHashBuffer":{"type":"Buffer","data":[184,6,57,89,178,185,174,207,170,214,214,71,90,247,39,232,134,155,0,78]},"announce":[],"urlList":[]}}